<?xml version="1.0" encoding="utf-8" standalone="no"?>
<!DOCTYPE svg PUBLIC "-//W3C//DTD SVG 1.1//EN"
  "http://www.w3.org/Graphics/SVG/1.1/DTD/svg11.dtd">
<svg xmlns:xlink="http://www.w3.org/1999/xlink" width="720.58125pt" height="242.826375pt" viewBox="0 0 720.58125 242.826375" xmlns="http://www.w3.org/2000/svg" version="1.1">
 <metadata>
  <rdf:RDF xmlns:dc="http://purl.org/dc/elements/1.1/" xmlns:cc="http://creativecommons.org/ns#" xmlns:rdf="http://www.w3.org/1999/02/22-rdf-syntax-ns#">
   <cc:Work>
    <dc:type rdf:resource="http://purl.org/dc/dcmitype/StillImage"/>
    <dc:date>2026-10-08T22:50:39.488132</dc:date>
    <dc:format>image/svg+xml</dc:format>
    <dc:creator>
     <cc:Agent>
      <dc:title>Matplotlib v3.7.5, https://matplotlib.org/</dc:title>
     </cc:Agent>
    </dc:creator>
   </cc:Work>
  </rdf:RDF>
 </metadata>
 <defs>
  <style type="text/css">*{stroke-linejoin: round; stroke-linecap: butt}</style>
 </defs>
 <g id="figure_1">
  <g id="patch_1">
   <path d="M 0 242.826375 
L 720.58125 242.826375 
L 720.58125 -0 
L 0 -0 
z
" style="fill: #ffffff"/>
  </g>
  <g id="axes_1">
   <g id="patch_2">
    <path d="M 43.78125 205.270125 
L 240.722426 205.270125 
L 240.722426 22.318125 
L 43.78125 22.318125 
z
" style="fill: #ffffff"/>
   </g>
   <g id="PolyCollection_1">
    <defs>
     <path id="mc25aec797d" d="M 95.725509 -49.119075 
L 95.725509 -42.734137 
L 97.36376 -42.734137 
L 99.002011 -42.734137 
L 100.616859 -42.734137 
L 102.25511 -42.734137 
L 103.893361 -42.734137 
L 105.531612 -42.734137 
L 107.146459 -42.734137 
L 108.78471 -42.734137 
L 110.422961 -42.734137 
L 112.061212 -42.734137 
L 113.67606 -42.734137 
L 115.314311 -42.734137 
L 116.952562 -42.734137 
L 118.590813 -42.734137 
L 120.20566 -42.734137 
L 121.843911 -42.734137 
L 123.482162 -42.734137 
L 125.120413 -43.039189 
L 126.735261 -42.734137 
L 128.373512 -47.529917 
L 130.011763 -43.683756 
L 131.650014 -49.826713 
L 133.264861 -53.528644 
L 134.903112 -64.334126 
L 136.541363 -67.183521 
L 138.179614 -94.542129 
L 139.794462 -99.342908 
L 141.432713 -125.936714 
L 143.070964 -141.640998 
L 144.709215 -167.385124 
L 146.324062 -187.324532 
L 147.962313 -185.235508 
L 149.600564 -196.042654 
L 151.238815 -196.042654 
L 152.853663 -208.945425 
L 154.491914 -205.926251 
L 156.130165 -208.945425 
L 157.768416 -208.945425 
L 159.383263 -208.945425 
L 161.021514 -208.945425 
L 162.659765 -208.945425 
L 164.298016 -208.945425 
L 165.912864 -208.945425 
L 167.551115 -208.945425 
L 169.189366 -208.945425 
L 170.827617 -208.945425 
L 172.442464 -208.945425 
L 174.080715 -208.945425 
L 175.718966 -208.945425 
L 177.357217 -208.945425 
L 178.972065 -208.945425 
L 180.610316 -208.945425 
L 182.248567 -208.945425 
L 183.886818 -208.945425 
L 185.501665 -208.945425 
L 185.501665 -215.330363 
L 185.501665 -215.330363 
L 183.886818 -215.330363 
L 182.248567 -215.330363 
L 180.610316 -215.330363 
L 178.972065 -215.330363 
L 177.357217 -215.330363 
L 175.718966 -215.330363 
L 174.080715 -215.330363 
L 172.442464 -215.330363 
L 170.827617 -215.330363 
L 169.189366 -215.330363 
L 167.551115 -215.330363 
L 165.912864 -215.330363 
L 164.298016 -215.330363 
L 162.659765 -215.330363 
L 161.021514 -215.330363 
L 159.383263 -215.330363 
L 157.768416 -215.330363 
L 156.130165 -215.330363 
L 154.491914 -215.025311 
L 152.853663 -215.330363 
L 151.238815 -211.612005 
L 149.600564 -211.612005 
L 147.962313 -205.798023 
L 146.324062 -207.033224 
L 144.709215 -193.730374 
L 143.070964 -172.93534 
L 141.432713 -158.721592 
L 139.794462 -132.127786 
L 138.179614 -126.955888 
L 136.541363 -94.478432 
L 134.903112 -90.679376 
L 133.264861 -74.891051 
L 131.650014 -68.620305 
L 130.011763 -54.817908 
L 128.373512 -64.268649 
L 126.735261 -49.119075 
L 125.120413 -52.138249 
L 123.482162 -49.119075 
L 121.843911 -49.119075 
L 120.20566 -49.119075 
L 118.590813 -49.119075 
L 116.952562 -49.119075 
L 115.314311 -49.119075 
L 113.67606 -49.119075 
L 112.061212 -49.119075 
L 110.422961 -49.119075 
L 108.78471 -49.119075 
L 107.146459 -49.119075 
L 105.531612 -49.119075 
L 103.893361 -49.119075 
L 102.25511 -49.119075 
L 100.616859 -49.119075 
L 99.002011 -49.119075 
L 97.36376 -49.119075 
L 95.725509 -49.119075 
z
" style="stroke: #1f77b4; stroke-opacity: 0.14"/>
    </defs>
    <g clip-path="url(#pa35f841731)">
     <use xlink:href="#mc25aec797d" x="0" y="242.826375" style="fill: #1f77b4; fill-opacity: 0.14; stroke: #1f77b4; stroke-opacity: 0.14"/>
    </g>
   </g>
   <g id="PolyCollection_2">
    <defs>
     <path id="m4745fcf858" d="M 117.490844 -49.119075 
L 117.490844 -42.734137 
L 119.129095 -42.734137 
L 120.767346 -42.734137 
L 122.382194 -42.734137 
L 124.020445 -42.734137 
L 125.658696 -42.734137 
L 127.296947 -42.734137 
L 128.911794 -42.734137 
L 130.550045 -42.734137 
L 132.188296 -42.734137 
L 133.826547 -42.734137 
L 135.441395 -42.734137 
L 137.079646 -43.039189 
L 138.717897 -42.734137 
L 140.356148 -42.734137 
L 141.970995 -42.734137 
L 143.609246 -42.734137 
L 145.247497 -42.734137 
L 146.885748 -43.039189 
L 148.500596 -44.504029 
L 150.138847 -43.683756 
L 151.777098 -44.504029 
L 153.415349 -45.437564 
L 155.030196 -48.657512 
L 156.668447 -51.031276 
L 158.306698 -51.031276 
L 159.944949 -57.450284 
L 161.559797 -70.079016 
L 163.198048 -80.523883 
L 164.836299 -58.795916 
L 166.47455 -83.586192 
L 168.089397 -100.956537 
L 169.727648 -97.735917 
L 171.365899 -119.133615 
L 173.00415 -104.203485 
L 174.618998 -122.522101 
L 176.257249 -134.590763 
L 177.8955 -122.522101 
L 179.533751 -150.62744 
L 181.148598 -131.108612 
L 182.786849 -159.833111 
L 184.4251 -159.833111 
L 186.063351 -181.135427 
L 187.678199 -183.173449 
L 189.31645 -185.235508 
L 190.954701 -183.173449 
L 192.592952 -185.235508 
L 194.207799 -193.795851 
L 195.84605 -196.042654 
L 197.484301 -200.74264 
L 199.122552 -205.926251 
L 200.7374 -203.246592 
L 202.375651 -200.74264 
L 204.013902 -200.74264 
L 205.652153 -208.945425 
L 207.267 -208.945425 
L 208.905251 -200.74264 
L 210.543502 -205.926251 
L 212.181753 -200.74264 
L 213.796601 -208.945425 
L 215.434852 -208.945425 
L 217.073103 -205.926251 
L 218.711354 -208.945425 
L 220.326201 -208.945425 
L 221.964452 -208.945425 
L 223.602703 -208.945425 
L 225.240954 -208.945425 
L 226.855802 -208.945425 
L 228.494053 -208.945425 
L 230.132304 -208.945425 
L 231.770555 -208.945425 
L 231.770555 -215.330363 
L 231.770555 -215.330363 
L 230.132304 -215.330363 
L 228.494053 -215.330363 
L 226.855802 -215.330363 
L 225.240954 -215.330363 
L 223.602703 -215.330363 
L 221.964452 -215.330363 
L 220.326201 -215.330363 
L 218.711354 -215.330363 
L 217.073103 -215.025311 
L 215.434852 -215.330363 
L 213.796601 -215.330363 
L 212.181753 -213.560471 
L 210.543502 -215.025311 
L 208.905251 -213.560471 
L 207.267 -215.330363 
L 205.652153 -215.330363 
L 204.013902 -213.560471 
L 202.375651 -213.560471 
L 200.7374 -214.380744 
L 199.122552 -215.025311 
L 197.484301 -213.560471 
L 195.84605 -211.612005 
L 194.207799 -210.534583 
L 192.592952 -205.798023 
L 190.954701 -204.535856 
L 189.31645 -205.798023 
L 187.678199 -204.535856 
L 186.063351 -203.249652 
L 184.4251 -187.985484 
L 182.786849 -187.985484 
L 181.148598 -163.522371 
L 179.533751 -180.570027 
L 177.8955 -155.487754 
L 176.257249 -166.688672 
L 174.618998 -155.487754 
L 173.00415 -137.239886 
L 171.365899 -152.227788 
L 169.727648 -130.410552 
L 168.089397 -133.838383 
L 166.47455 -114.642244 
L 164.836299 -82.920682 
L 163.198048 -111.056102 
L 161.559797 -98.231389 
L 159.944949 -80.942088 
L 158.306698 -70.739968 
L 156.668447 -70.739968 
L 155.030196 -66.46528 
L 153.415349 -59.712551 
L 151.777098 -57.32186 
L 150.138847 -54.817908 
L 148.500596 -57.32186 
L 146.885748 -52.138249 
L 145.247497 -49.119075 
L 143.609246 -49.119075 
L 141.970995 -49.119075 
L 140.356148 -49.119075 
L 138.717897 -49.119075 
L 137.079646 -52.138249 
L 135.441395 -49.119075 
L 133.826547 -49.119075 
L 132.188296 -49.119075 
L 130.550045 -49.119075 
L 128.911794 -49.119075 
L 127.296947 -49.119075 
L 125.658696 -49.119075 
L 124.020445 -49.119075 
L 122.382194 -49.119075 
L 120.767346 -49.119075 
L 119.129095 -49.119075 
L 117.490844 -49.119075 
z
" style="stroke: #ff7f0e; stroke-opacity: 0.14"/>
    </defs>
    <g clip-path="url(#pa35f841731)">
     <use xlink:href="#m4745fcf858" x="0" y="242.826375" style="fill: #ff7f0e; fill-opacity: 0.14; stroke: #ff7f0e; stroke-opacity: 0.14"/>
    </g>
   </g>
   <g id="PolyCollection_3">
    <defs>
     <path id="m029f0aa80d" d="M 52.733122 -49.119075 
L 52.733122 -42.734137 
L 54.371373 -42.734137 
L 56.009624 -42.734137 
L 57.647875 -42.734137 
L 59.262722 -42.734137 
L 60.900973 -42.734137 
L 62.539224 -42.734137 
L 64.177475 -42.734137 
L 65.792323 -42.734137 
L 67.430574 -42.734137 
L 69.068825 -42.734137 
L 70.707076 -42.734137 
L 72.321923 -42.734137 
L 73.960174 -42.734137 
L 75.598425 -42.734137 
L 77.236676 -42.734137 
L 78.851524 -42.734137 
L 80.489775 -43.683756 
L 82.128026 -43.039189 
L 83.766277 -43.039189 
L 85.381124 -45.437564 
L 87.019375 -43.039189 
L 88.657626 -51.031276 
L 90.295877 -49.826713 
L 91.910725 -62.928284 
L 93.548976 -68.625784 
L 95.187227 -74.499952 
L 96.825478 -88.237834 
L 98.440325 -100.956537 
L 100.078576 -109.122502 
L 101.716827 -132.846204 
L 103.355078 -138.101221 
L 104.969926 -125.936714 
L 106.608177 -157.972605 
L 108.246428 -148.813691 
L 109.884679 -181.135427 
L 111.499526 -193.795851 
L 113.137777 -183.173449 
L 114.776028 -185.235508 
L 116.414279 -187.324532 
L 118.029127 -200.74264 
L 119.667378 -191.59922 
L 121.305629 -203.246592 
L 122.94388 -200.74264 
L 124.558727 -203.246592 
L 126.196978 -208.945425 
L 127.835229 -208.945425 
L 129.47348 -205.926251 
L 131.088328 -208.945425 
L 132.726579 -208.945425 
L 134.36483 -208.945425 
L 136.003081 -208.945425 
L 137.617928 -208.945425 
L 139.256179 -208.945425 
L 140.89443 -208.945425 
L 142.532681 -208.945425 
L 144.147529 -208.945425 
L 145.78578 -208.945425 
L 147.424031 -208.945425 
L 149.062282 -208.945425 
L 150.677129 -208.945425 
L 150.677129 -215.330363 
L 150.677129 -215.330363 
L 149.062282 -215.330363 
L 147.424031 -215.330363 
L 145.78578 -215.330363 
L 144.147529 -215.330363 
L 142.532681 -215.330363 
L 140.89443 -215.330363 
L 139.256179 -215.330363 
L 137.617928 -215.330363 
L 136.003081 -215.330363 
L 134.36483 -215.330363 
L 132.726579 -215.330363 
L 131.088328 -215.330363 
L 129.47348 -215.025311 
L 127.835229 -215.330363 
L 126.196978 -215.330363 
L 124.558727 -214.380744 
L 122.94388 -213.560471 
L 121.305629 -214.380744 
L 119.667378 -209.406988 
L 118.029127 -213.560471 
L 116.414279 -207.033224 
L 114.776028 -205.798023 
L 113.137777 -204.535856 
L 111.499526 -210.534583 
L 109.884679 -203.249652 
L 108.246428 -179.05955 
L 106.608177 -186.521765 
L 104.969926 -158.721592 
L 103.355078 -169.826666 
L 101.716827 -165.109005 
L 100.078576 -142.293547 
L 98.440325 -133.838383 
L 96.825478 -119.963279 
L 95.187227 -103.78313 
L 93.548976 -96.360394 
L 91.910725 -88.760991 
L 90.295877 -68.620305 
L 88.657626 -70.739968 
L 87.019375 -52.138249 
L 85.381124 -59.712551 
L 83.766277 -52.138249 
L 82.128026 -52.138249 
L 80.489775 -54.817908 
L 78.851524 -49.119075 
L 77.236676 -49.119075 
L 75.598425 -49.119075 
L 73.960174 -49.119075 
L 72.321923 -49.119075 
L 70.707076 -49.119075 
L 69.068825 -49.119075 
L 67.430574 -49.119075 
L 65.792323 -49.119075 
L 64.177475 -49.119075 
L 62.539224 -49.119075 
L 60.900973 -49.119075 
L 59.262722 -49.119075 
L 57.647875 -49.119075 
L 56.009624 -49.119075 
L 54.371373 -49.119075 
L 52.733122 -49.119075 
z
" style="stroke: #2ca02c; stroke-opacity: 0.14"/>
    </defs>
    <g clip-path="url(#pa35f841731)">
     <use xlink:href="#m029f0aa80d" x="0" y="242.826375" style="fill: #2ca02c; fill-opacity: 0.14; stroke: #2ca02c; stroke-opacity: 0.14"/>
    </g>
   </g>
   <g id="matplotlib.axis_1">
    <g id="xtick_1">
     <g id="line2d_1">
      <defs>
       <path id="m3086b16a1d" d="M 0 0 
L 0 3.5 
" style="stroke: #000000; stroke-width: 0.8"/>
      </defs>
      <g>
       <use xlink:href="#m3086b16a1d" x="44.190813" y="205.270125" style="stroke: #000000; stroke-width: 0.8"/>
      </g>
     </g>
     <g id="text_1">
      <text style="font: 10px 'DejaVu Sans'; text-anchor: middle" x="44.190813" y="219.868562" transform="rotate(-0 44.190813 219.868562)">1.10</text>
     </g>
    </g>
    <g id="xtick_2">
     <g id="line2d_2">
      <g>
       <use xlink:href="#m3086b16a1d" x="88.072537" y="205.270125" style="stroke: #000000; stroke-width: 0.8"/>
      </g>
     </g>
     <g id="text_2">
      <text style="font: 10px 'DejaVu Sans'; text-anchor: middle" x="88.072537" y="219.868562" transform="rotate(-0 88.072537 219.868562)">1.15</text>
     </g>
    </g>
    <g id="xtick_3">
     <g id="line2d_3">
      <g>
       <use xlink:href="#m3086b16a1d" x="131.95426" y="205.270125" style="stroke: #000000; stroke-width: 0.8"/>
      </g>
     </g>
     <g id="text_3">
      <text style="font: 10px 'DejaVu Sans'; text-anchor: middle" x="131.95426" y="219.868562" transform="rotate(-0 131.95426 219.868562)">1.20</text>
     </g>
    </g>
    <g id="xtick_4">
     <g id="line2d_4">
      <g>
       <use xlink:href="#m3086b16a1d" x="175.835984" y="205.270125" style="stroke: #000000; stroke-width: 0.8"/>
      </g>
     </g>
     <g id="text_4">
      <text style="font: 10px 'DejaVu Sans'; text-anchor: middle" x="175.835984" y="219.868562" transform="rotate(-0 175.835984 219.868562)">1.25</text>
     </g>
    </g>
    <g id="xtick_5">
     <g id="line2d_5">
      <g>
       <use xlink:href="#m3086b16a1d" x="219.717708" y="205.270125" style="stroke: #000000; stroke-width: 0.8"/>
      </g>
     </g>
     <g id="text_5">
      <text style="font: 10px 'DejaVu Sans'; text-anchor: middle" x="219.717708" y="219.868562" transform="rotate(-0 219.717708 219.868562)">1.30</text>
     </g>
    </g>
    <g id="text_6">
     <text style="font: 10px 'DejaVu Sans'; text-anchor: middle" x="142.251838" y="233.546687" transform="rotate(-0 142.251838 233.546687)">Communication ratio</text>
    </g>
   </g>
   <g id="matplotlib.axis_2">
    <g id="ytick_1">
     <g id="line2d_6">
      <defs>
       <path id="meee36cc1a8" d="M 0 0 
L -3.5 0 
" style="stroke: #000000; stroke-width: 0.8"/>
      </defs>
      <g>
       <use xlink:href="#meee36cc1a8" x="43.78125" y="200.092238" style="stroke: #000000; stroke-width: 0.8"/>
      </g>
     </g>
     <g id="text_7">
      <text style="font: 10px 'DejaVu Sans'; text-anchor: end" x="36.78125" y="203.891457" transform="rotate(-0 36.78125 203.891457)">0.0</text>
     </g>
    </g>
    <g id="ytick_2">
     <g id="line2d_7">
      <g>
       <use xlink:href="#meee36cc1a8" x="43.78125" y="165.572993" style="stroke: #000000; stroke-width: 0.8"/>
      </g>
     </g>
     <g id="text_8">
      <text style="font: 10px 'DejaVu Sans'; text-anchor: end" x="36.78125" y="169.372212" transform="rotate(-0 36.78125 169.372212)">0.2</text>
     </g>
    </g>
    <g id="ytick_3">
     <g id="line2d_8">
      <g>
       <use xlink:href="#meee36cc1a8" x="43.78125" y="131.053748" style="stroke: #000000; stroke-width: 0.8"/>
      </g>
     </g>
     <g id="text_9">
      <text style="font: 10px 'DejaVu Sans'; text-anchor: end" x="36.78125" y="134.852966" transform="rotate(-0 36.78125 134.852966)">0.4</text>
     </g>
    </g>
    <g id="ytick_4">
     <g id="line2d_9">
      <g>
       <use xlink:href="#meee36cc1a8" x="43.78125" y="96.534502" style="stroke: #000000; stroke-width: 0.8"/>
      </g>
     </g>
     <g id="text_10">
      <text style="font: 10px 'DejaVu Sans'; text-anchor: end" x="36.78125" y="100.333721" transform="rotate(-0 36.78125 100.333721)">0.6</text>
     </g>
    </g>
    <g id="ytick_5">
     <g id="line2d_10">
      <g>
       <use xlink:href="#meee36cc1a8" x="43.78125" y="62.015257" style="stroke: #000000; stroke-width: 0.8"/>
      </g>
     </g>
     <g id="text_11">
      <text style="font: 10px 'DejaVu Sans'; text-anchor: end" x="36.78125" y="65.814476" transform="rotate(-0 36.78125 65.814476)">0.8</text>
     </g>
    </g>
    <g id="ytick_6">
     <g id="line2d_11">
      <g>
       <use xlink:href="#meee36cc1a8" x="43.78125" y="27.496012" style="stroke: #000000; stroke-width: 0.8"/>
      </g>
     </g>
     <g id="text_12">
      <text style="font: 10px 'DejaVu Sans'; text-anchor: end" x="36.78125" y="31.295231" transform="rotate(-0 36.78125 31.295231)">1.0</text>
     </g>
    </g>
    <g id="text_13">
     <text style="font: 10px 'DejaVu Sans'; text-anchor: middle" x="14.798438" y="113.794125" transform="rotate(-90 14.798438 113.794125)">Success probability</text>
    </g>
   </g>
   <g id="line2d_12">
    <path d="M 95.725509 200.092238 
L 97.36376 200.092238 
L 99.002011 200.092238 
L 100.616859 200.092238 
L 102.25511 200.092238 
L 103.893361 200.092238 
L 105.531612 200.092238 
L 107.146459 200.092238 
L 108.78471 200.092238 
L 110.422961 200.092238 
L 112.061212 200.092238 
L 113.67606 200.092238 
L 115.314311 200.092238 
L 116.952562 200.092238 
L 118.590813 200.092238 
L 120.20566 200.092238 
L 121.843911 200.092238 
L 123.482162 200.092238 
L 125.120413 198.366276 
L 126.735261 200.092238 
L 128.373512 189.736465 
L 130.011763 196.640314 
L 131.650014 186.28454 
L 133.264861 181.106653 
L 134.903112 167.298955 
L 136.541363 163.847031 
L 138.179614 132.77971 
L 139.794462 127.601823 
L 141.432713 99.986427 
L 143.070964 84.452767 
L 144.709215 60.289295 
L 146.324062 43.029672 
L 147.962313 44.755634 
L 149.600564 36.125823 
L 151.238815 36.125823 
L 152.853663 27.496012 
L 154.491914 29.221974 
L 156.130165 27.496012 
L 157.768416 27.496012 
L 159.383263 27.496012 
L 161.021514 27.496012 
L 162.659765 27.496012 
L 164.298016 27.496012 
L 165.912864 27.496012 
L 167.551115 27.496012 
L 169.189366 27.496012 
L 170.827617 27.496012 
L 172.442464 27.496012 
L 174.080715 27.496012 
L 175.718966 27.496012 
L 177.357217 27.496012 
L 178.972065 27.496012 
L 180.610316 27.496012 
L 182.248567 27.496012 
L 183.886818 27.496012 
L 185.501665 27.496012 
" clip-path="url(#pa35f841731)" style="fill: none; stroke: #1f77b4; stroke-width: 1.5; stroke-linecap: square"/>
   </g>
   <g id="line2d_13">
    <path d="M 117.490844 200.092238 
L 119.129095 200.092238 
L 120.767346 200.092238 
L 122.382194 200.092238 
L 124.020445 200.092238 
L 125.658696 200.092238 
L 127.296947 200.092238 
L 128.911794 200.092238 
L 130.550045 200.092238 
L 132.188296 200.092238 
L 133.826547 200.092238 
L 135.441395 200.092238 
L 137.079646 198.366276 
L 138.717897 200.092238 
L 140.356148 200.092238 
L 141.970995 200.092238 
L 143.609246 200.092238 
L 145.247497 200.092238 
L 146.885748 198.366276 
L 148.500596 194.914351 
L 150.138847 196.640314 
L 151.777098 194.914351 
L 153.415349 193.188389 
L 155.030196 188.010502 
L 156.668447 184.558578 
L 158.306698 184.558578 
L 159.944949 175.928767 
L 161.559797 160.395106 
L 163.198048 148.31337 
L 164.836299 174.202804 
L 166.47455 144.861446 
L 168.089397 125.875861 
L 169.727648 129.327785 
L 171.365899 106.890276 
L 173.00415 122.423936 
L 174.618998 103.438351 
L 176.257249 91.356616 
L 177.8955 103.438351 
L 179.533751 75.822955 
L 181.148598 94.80854 
L 182.786849 67.193144 
L 184.4251 67.193144 
L 186.063351 48.207559 
L 187.678199 46.481597 
L 189.31645 44.755634 
L 190.954701 46.481597 
L 192.592952 44.755634 
L 194.207799 37.851785 
L 195.84605 36.125823 
L 197.484301 32.673899 
L 199.122552 29.221974 
L 200.7374 30.947936 
L 202.375651 32.673899 
L 204.013902 32.673899 
L 205.652153 27.496012 
L 207.267 27.496012 
L 208.905251 32.673899 
L 210.543502 29.221974 
L 212.181753 32.673899 
L 213.796601 27.496012 
L 215.434852 27.496012 
L 217.073103 29.221974 
L 218.711354 27.496012 
L 220.326201 27.496012 
L 221.964452 27.496012 
L 223.602703 27.496012 
L 225.240954 27.496012 
L 226.855802 27.496012 
L 228.494053 27.496012 
L 230.132304 27.496012 
L 231.770555 27.496012 
" clip-path="url(#pa35f841731)" style="fill: none; stroke: #ff7f0e; stroke-width: 1.5; stroke-linecap: square"/>
   </g>
   <g id="line2d_14">
    <path d="M 52.733122 200.092238 
L 54.371373 200.092238 
L 56.009624 200.092238 
L 57.647875 200.092238 
L 59.262722 200.092238 
L 60.900973 200.092238 
L 62.539224 200.092238 
L 64.177475 200.092238 
L 65.792323 200.092238 
L 67.430574 200.092238 
L 69.068825 200.092238 
L 70.707076 200.092238 
L 72.321923 200.092238 
L 73.960174 200.092238 
L 75.598425 200.092238 
L 77.236676 200.092238 
L 78.851524 200.092238 
L 80.489775 196.640314 
L 82.128026 198.366276 
L 83.766277 198.366276 
L 85.381124 193.188389 
L 87.019375 198.366276 
L 88.657626 184.558578 
L 90.295877 186.28454 
L 91.910725 169.024917 
L 93.548976 162.121068 
L 95.187227 155.217219 
L 96.825478 139.683559 
L 98.440325 125.875861 
L 100.078576 117.24605 
L 101.716827 93.082578 
L 103.355078 87.904691 
L 104.969926 99.986427 
L 106.608177 68.919106 
L 108.246428 77.548917 
L 109.884679 48.207559 
L 111.499526 37.851785 
L 113.137777 46.481597 
L 114.776028 44.755634 
L 116.414279 43.029672 
L 118.029127 32.673899 
L 119.667378 39.577748 
L 121.305629 30.947936 
L 122.94388 32.673899 
L 124.558727 30.947936 
L 126.196978 27.496012 
L 127.835229 27.496012 
L 129.47348 29.221974 
L 131.088328 27.496012 
L 132.726579 27.496012 
L 134.36483 27.496012 
L 136.003081 27.496012 
L 137.617928 27.496012 
L 139.256179 27.496012 
L 140.89443 27.496012 
L 142.532681 27.496012 
L 144.147529 27.496012 
L 145.78578 27.496012 
L 147.424031 27.496012 
L 149.062282 27.496012 
L 150.677129 27.496012 
" clip-path="url(#pa35f841731)" style="fill: none; stroke: #2ca02c; stroke-width: 1.5; stroke-linecap: square"/>
   </g>
   <g id="patch_3">
    <path d="M 43.78125 205.270125 
L 43.78125 22.318125 
" style="fill: none; stroke: #000000; stroke-width: 0.8; stroke-linejoin: miter; stroke-linecap: square"/>
   </g>
   <g id="patch_4">
    <path d="M 240.722426 205.270125 
L 240.722426 22.318125 
" style="fill: none; stroke: #000000; stroke-width: 0.8; stroke-linejoin: miter; stroke-linecap: square"/>
   </g>
   <g id="patch_5">
    <path d="M 43.78125 205.270125 
L 240.722426 205.270125 
" style="fill: none; stroke: #000000; stroke-width: 0.8; stroke-linejoin: miter; stroke-linecap: square"/>
   </g>
   <g id="patch_6">
    <path d="M 43.78125 22.318125 
L 240.722426 22.318125 
" style="fill: none; stroke: #000000; stroke-width: 0.8; stroke-linejoin: miter; stroke-linecap: square"/>
   </g>
   <g id="text_14">
    <text style="font: 12px 'DejaVu Sans'; text-anchor: middle" x="142.251838" y="16.318125" transform="rotate(-0 142.251838 16.318125)">k=2, ell=3</text>
   </g>
   <g id="legend_1">
    <g id="patch_7">
     <path d="M 159.918676 201.270125 
L 235.122426 201.270125 
Q 236.722426 201.270125 236.722426 199.670125 
L 236.722426 165.242625 
Q 236.722426 163.642625 235.122426 163.642625 
L 159.918676 163.642625 
Q 158.318676 163.642625 158.318676 165.242625 
L 158.318676 199.670125 
Q 158.318676 201.270125 159.918676 201.270125 
z
" style="fill: #ffffff; opacity: 0.8; stroke: #cccccc; stroke-linejoin: miter"/>
    </g>
    <g id="line2d_15">
     <path d="M 161.518676 170.121375 
L 169.518676 170.121375 
L 177.518676 170.121375 
" style="fill: none; stroke: #1f77b4; stroke-width: 1.5; stroke-linecap: square"/>
    </g>
    <g id="text_15">
     <text style="font: 8px 'DejaVu Sans'; text-anchor: start" x="183.918676" y="172.921375" transform="rotate(-0 183.918676 172.921375)">i.i.d.</text>
    </g>
    <g id="line2d_16">
     <path d="M 161.518676 181.863875 
L 169.518676 181.863875 
L 177.518676 181.863875 
" style="fill: none; stroke: #ff7f0e; stroke-width: 1.5; stroke-linecap: square"/>
    </g>
    <g id="text_16">
     <text style="font: 8px 'DejaVu Sans'; text-anchor: start" x="183.918676" y="184.663875" transform="rotate(-0 183.918676 184.663875)">Standard SC</text>
    </g>
    <g id="line2d_17">
     <path d="M 161.518676 193.606375 
L 169.518676 193.606375 
L 177.518676 193.606375 
" style="fill: none; stroke: #2ca02c; stroke-width: 1.5; stroke-linecap: square"/>
    </g>
    <g id="text_17">
     <text style="font: 8px 'DejaVu Sans'; text-anchor: start" x="183.918676" y="196.406375" transform="rotate(-0 183.918676 196.406375)">Circular SC</text>
    </g>
   </g>
  </g>
  <g id="axes_2">
   <g id="patch_8">
    <path d="M 280.110662 205.270125 
L 477.051838 205.270125 
L 477.051838 22.318125 
L 280.110662 22.318125 
z
" style="fill: #ffffff"/>
   </g>
   <g id="PolyCollection_4">
    <defs>
     <path id="ma40c45c2cb" d="M 380.527309 -49.119075 
L 380.527309 -42.734137 
L 381.986853 -42.734137 
L 383.446398 -42.734137 
L 384.905942 -42.734137 
L 386.365486 -42.734137 
L 387.825031 -42.734137 
L 389.284575 -42.734137 
L 390.744119 -42.734137 
L 392.203663 -42.734137 
L 393.663208 -42.734137 
L 395.122752 -42.734137 
L 396.582296 -42.734137 
L 398.041841 -42.734137 
L 399.501385 -42.734137 
L 400.960929 -42.734137 
L 402.420473 -42.734137 
L 403.880018 -42.734137 
L 405.339562 -42.734137 
L 406.799106 -43.683756 
L 408.258651 -43.039189 
L 409.718195 -44.504029 
L 411.177739 -47.529917 
L 412.637283 -45.437564 
L 414.096828 -52.266477 
L 415.556372 -61.536021 
L 417.015916 -68.625784 
L 418.475461 -74.499952 
L 419.935005 -105.836712 
L 421.394549 -112.433935 
L 422.854094 -129.377889 
L 424.313638 -159.833111 
L 425.773182 -165.479539 
L 427.232726 -187.324532 
L 428.692271 -198.351949 
L 430.151815 -193.795851 
L 431.611359 -200.74264 
L 433.070904 -203.246592 
L 434.530448 -205.926251 
L 435.989992 -208.945425 
L 437.449536 -208.945425 
L 438.909081 -208.945425 
L 440.368625 -208.945425 
L 441.828169 -208.945425 
L 443.287714 -208.945425 
L 444.747258 -208.945425 
L 446.206802 -208.945425 
L 447.666346 -208.945425 
L 449.125891 -208.945425 
L 450.585435 -208.945425 
L 452.044979 -208.945425 
L 453.504524 -208.945425 
L 454.964068 -208.945425 
L 456.423612 -208.945425 
L 457.883157 -208.945425 
L 459.342701 -208.945425 
L 460.802245 -208.945425 
L 462.261789 -208.945425 
L 462.261789 -215.330363 
L 462.261789 -215.330363 
L 460.802245 -215.330363 
L 459.342701 -215.330363 
L 457.883157 -215.330363 
L 456.423612 -215.330363 
L 454.964068 -215.330363 
L 453.504524 -215.330363 
L 452.044979 -215.330363 
L 450.585435 -215.330363 
L 449.125891 -215.330363 
L 447.666346 -215.330363 
L 446.206802 -215.330363 
L 444.747258 -215.330363 
L 443.287714 -215.330363 
L 441.828169 -215.330363 
L 440.368625 -215.330363 
L 438.909081 -215.330363 
L 437.449536 -215.330363 
L 435.989992 -215.330363 
L 434.530448 -215.025311 
L 433.070904 -214.380744 
L 431.611359 -213.560471 
L 430.151815 -210.534583 
L 428.692271 -212.626936 
L 427.232726 -207.033224 
L 425.773182 -192.311734 
L 424.313638 -187.985484 
L 422.854094 -161.928869 
L 421.394549 -145.630565 
L 419.935005 -138.930885 
L 418.475461 -103.78313 
L 417.015916 -96.360394 
L 415.556372 -86.829029 
L 414.096828 -72.828992 
L 412.637283 -59.712551 
L 411.177739 -64.268649 
L 409.718195 -57.32186 
L 408.258651 -52.138249 
L 406.799106 -54.817908 
L 405.339562 -49.119075 
L 403.880018 -49.119075 
L 402.420473 -49.119075 
L 400.960929 -49.119075 
L 399.501385 -49.119075 
L 398.041841 -49.119075 
L 396.582296 -49.119075 
L 395.122752 -49.119075 
L 393.663208 -49.119075 
L 392.203663 -49.119075 
L 390.744119 -49.119075 
L 389.284575 -49.119075 
L 387.825031 -49.119075 
L 386.365486 -49.119075 
L 384.905942 -49.119075 
L 383.446398 -49.119075 
L 381.986853 -49.119075 
L 380.527309 -49.119075 
z
" style="stroke: #1f77b4; stroke-opacity: 0.14"/>
    </defs>
    <g clip-path="url(#p2a19e5aef6)">
     <use xlink:href="#ma40c45c2cb" x="0" y="242.826375" style="fill: #1f77b4; fill-opacity: 0.14; stroke: #1f77b4; stroke-opacity: 0.14"/>
    </g>
   </g>
   <g id="PolyCollection_5">
    <defs>
     <path id="mbca9c6d417" d="M 363.012778 -49.119075 
L 363.012778 -42.734137 
L 364.472322 -42.734137 
L 365.931866 -42.734137 
L 367.39141 -42.734137 
L 368.850955 -42.734137 
L 370.310499 -42.734137 
L 371.770043 -43.039189 
L 373.229588 -42.734137 
L 374.689132 -42.734137 
L 376.148676 -42.734137 
L 377.60822 -42.734137 
L 379.067765 -43.683756 
L 380.527309 -44.504029 
L 381.986853 -43.039189 
L 383.446398 -45.437564 
L 384.905942 -44.504029 
L 386.365486 -46.452495 
L 387.825031 -46.452495 
L 389.284575 -47.529917 
L 390.744119 -48.657512 
L 392.203663 -61.536021 
L 393.663208 -54.814848 
L 395.122752 -61.536021 
L 396.582296 -73.01651 
L 398.041841 -79.00495 
L 399.501385 -67.183521 
L 400.960929 -79.00495 
L 402.420473 -89.803234 
L 403.880018 -114.099245 
L 405.339562 -117.44907 
L 406.799106 -124.226117 
L 408.258651 -141.640998 
L 409.718195 -134.590763 
L 411.177739 -150.62744 
L 412.637283 -147.008398 
L 414.096828 -143.422256 
L 415.556372 -147.008398 
L 417.015916 -161.704106 
L 418.475461 -173.1819 
L 419.935005 -175.143818 
L 421.394549 -165.479539 
L 422.854094 -177.122412 
L 424.313638 -175.143818 
L 425.773182 -183.173449 
L 427.232726 -196.042654 
L 428.692271 -193.795851 
L 430.151815 -191.59922 
L 431.611359 -203.246592 
L 433.070904 -203.246592 
L 434.530448 -200.74264 
L 435.989992 -205.926251 
L 437.449536 -203.246592 
L 438.909081 -203.246592 
L 440.368625 -205.926251 
L 441.828169 -205.926251 
L 443.287714 -208.945425 
L 444.747258 -208.945425 
L 446.206802 -208.945425 
L 447.666346 -205.926251 
L 449.125891 -208.945425 
L 450.585435 -205.926251 
L 452.044979 -208.945425 
L 453.504524 -208.945425 
L 454.964068 -208.945425 
L 456.423612 -208.945425 
L 457.883157 -208.945425 
L 459.342701 -208.945425 
L 460.802245 -208.945425 
L 462.261789 -208.945425 
L 463.721334 -208.945425 
L 465.180878 -208.945425 
L 466.640422 -208.945425 
L 468.099967 -208.945425 
L 468.099967 -215.330363 
L 468.099967 -215.330363 
L 466.640422 -215.330363 
L 465.180878 -215.330363 
L 463.721334 -215.330363 
L 462.261789 -215.330363 
L 460.802245 -215.330363 
L 459.342701 -215.330363 
L 457.883157 -215.330363 
L 456.423612 -215.330363 
L 454.964068 -215.330363 
L 453.504524 -215.330363 
L 452.044979 -215.330363 
L 450.585435 -215.025311 
L 449.125891 -215.330363 
L 447.666346 -215.025311 
L 446.206802 -215.330363 
L 444.747258 -215.330363 
L 443.287714 -215.330363 
L 441.828169 -215.025311 
L 440.368625 -215.025311 
L 438.909081 -214.380744 
L 437.449536 -214.380744 
L 435.989992 -215.025311 
L 434.530448 -213.560471 
L 433.070904 -214.380744 
L 431.611359 -214.380744 
L 430.151815 -209.406988 
L 428.692271 -210.534583 
L 427.232726 -211.612005 
L 425.773182 -204.535856 
L 424.313638 -199.268584 
L 422.854094 -200.614216 
L 421.394549 -192.311734 
L 419.935005 -199.268584 
L 418.475461 -197.906276 
L 417.015916 -189.438716 
L 415.556372 -177.540617 
L 414.096828 -174.478308 
L 412.637283 -177.540617 
L 411.177739 -180.570027 
L 409.718195 -166.688672 
L 408.258651 -172.93534 
L 406.799106 -157.107963 
L 405.339562 -150.588107 
L 403.880018 -147.289481 
L 402.420473 -121.722105 
L 400.960929 -109.250809 
L 399.501385 -94.478432 
L 398.041841 -109.250809 
L 396.582296 -101.942346 
L 395.122752 -86.829029 
L 393.663208 -76.929073 
L 392.203663 -86.829029 
L 390.744119 -66.46528 
L 389.284575 -64.268649 
L 387.825031 -62.021846 
L 386.365486 -62.021846 
L 384.905942 -57.32186 
L 383.446398 -59.712551 
L 381.986853 -52.138249 
L 380.527309 -57.32186 
L 379.067765 -54.817908 
L 377.60822 -49.119075 
L 376.148676 -49.119075 
L 374.689132 -49.119075 
L 373.229588 -49.119075 
L 371.770043 -52.138249 
L 370.310499 -49.119075 
L 368.850955 -49.119075 
L 367.39141 -49.119075 
L 365.931866 -49.119075 
L 364.472322 -49.119075 
L 363.012778 -49.119075 
z
" style="stroke: #ff7f0e; stroke-opacity: 0.14"/>
    </defs>
    <g clip-path="url(#p2a19e5aef6)">
     <use xlink:href="#mbca9c6d417" x="0" y="242.826375" style="fill: #ff7f0e; fill-opacity: 0.14; stroke: #ff7f0e; stroke-opacity: 0.14"/>
    </g>
   </g>
   <g id="PolyCollection_6">
    <defs>
     <path id="m3eae3e3088" d="M 289.062533 -49.119075 
L 289.062533 -42.734137 
L 290.522078 -42.734137 
L 291.981622 -42.734137 
L 293.441166 -42.734137 
L 294.900711 -42.734137 
L 296.360255 -42.734137 
L 297.819799 -42.734137 
L 299.279343 -42.734137 
L 300.738888 -42.734137 
L 302.198432 -42.734137 
L 303.657976 -42.734137 
L 305.117521 -42.734137 
L 306.577065 -42.734137 
L 308.036609 -42.734137 
L 309.496154 -42.734137 
L 310.955698 -42.734137 
L 312.415242 -42.734137 
L 313.874786 -42.734137 
L 315.334331 -42.734137 
L 316.793875 -42.734137 
L 318.253419 -45.437564 
L 319.712964 -43.039189 
L 321.172508 -47.529917 
L 322.632052 -46.452495 
L 324.091596 -57.450284 
L 325.551141 -48.657512 
L 327.010685 -64.334126 
L 328.470229 -70.079016 
L 329.929774 -68.625784 
L 331.389318 -79.00495 
L 332.848862 -97.735917 
L 334.308406 -89.803234 
L 335.767951 -99.342908 
L 337.227495 -120.824614 
L 338.687039 -132.846204 
L 340.146584 -132.846204 
L 341.606128 -154.28137 
L 343.065672 -159.833111 
L 344.525217 -173.1819 
L 345.984761 -173.1819 
L 347.444305 -189.444195 
L 348.903849 -185.235508 
L 350.363394 -191.59922 
L 351.822938 -191.59922 
L 353.282482 -189.444195 
L 354.742027 -193.795851 
L 356.201571 -205.926251 
L 357.661115 -198.351949 
L 359.120659 -200.74264 
L 360.580204 -208.945425 
L 362.039748 -208.945425 
L 363.499292 -208.945425 
L 364.958837 -208.945425 
L 366.418381 -208.945425 
L 367.877925 -205.926251 
L 369.337469 -203.246592 
L 370.797014 -208.945425 
L 372.256558 -208.945425 
L 373.716102 -208.945425 
L 375.175647 -208.945425 
L 376.635191 -208.945425 
L 378.094735 -208.945425 
L 379.55428 -208.945425 
L 381.013824 -208.945425 
L 382.473368 -208.945425 
L 383.932912 -208.945425 
L 385.392457 -208.945425 
L 386.852001 -208.945425 
L 386.852001 -215.330363 
L 386.852001 -215.330363 
L 385.392457 -215.330363 
L 383.932912 -215.330363 
L 382.473368 -215.330363 
L 381.013824 -215.330363 
L 379.55428 -215.330363 
L 378.094735 -215.330363 
L 376.635191 -215.330363 
L 375.175647 -215.330363 
L 373.716102 -215.330363 
L 372.256558 -215.330363 
L 370.797014 -215.330363 
L 369.337469 -214.380744 
L 367.877925 -215.025311 
L 366.418381 -215.330363 
L 364.958837 -215.330363 
L 363.499292 -215.330363 
L 362.039748 -215.330363 
L 360.580204 -215.330363 
L 359.120659 -213.560471 
L 357.661115 -212.626936 
L 356.201571 -215.025311 
L 354.742027 -210.534583 
L 353.282482 -208.237787 
L 351.822938 -209.406988 
L 350.363394 -209.406988 
L 348.903849 -205.798023 
L 347.444305 -208.237787 
L 345.984761 -197.906276 
L 344.525217 -197.906276 
L 343.065672 -187.985484 
L 341.606128 -183.564548 
L 340.146584 -165.109005 
L 338.687039 -165.109005 
L 337.227495 -153.861015 
L 335.767951 -132.127786 
L 334.308406 -121.722105 
L 332.848862 -130.410552 
L 331.389318 -109.250809 
L 329.929774 -96.360394 
L 328.470229 -98.231389 
L 327.010685 -90.679376 
L 325.551141 -66.46528 
L 324.091596 -80.942088 
L 322.632052 -62.021846 
L 321.172508 -64.268649 
L 319.712964 -52.138249 
L 318.253419 -59.712551 
L 316.793875 -49.119075 
L 315.334331 -49.119075 
L 313.874786 -49.119075 
L 312.415242 -49.119075 
L 310.955698 -49.119075 
L 309.496154 -49.119075 
L 308.036609 -49.119075 
L 306.577065 -49.119075 
L 305.117521 -49.119075 
L 303.657976 -49.119075 
L 302.198432 -49.119075 
L 300.738888 -49.119075 
L 299.279343 -49.119075 
L 297.819799 -49.119075 
L 296.360255 -49.119075 
L 294.900711 -49.119075 
L 293.441166 -49.119075 
L 291.981622 -49.119075 
L 290.522078 -49.119075 
L 289.062533 -49.119075 
z
" style="stroke: #2ca02c; stroke-opacity: 0.14"/>
    </defs>
    <g clip-path="url(#p2a19e5aef6)">
     <use xlink:href="#m3eae3e3088" x="0" y="242.826375" style="fill: #2ca02c; fill-opacity: 0.14; stroke: #2ca02c; stroke-opacity: 0.14"/>
    </g>
   </g>
   <g id="matplotlib.axis_3">
    <g id="xtick_6">
     <g id="line2d_18">
      <g>
       <use xlink:href="#m3086b16a1d" x="303.446448" y="205.270125" style="stroke: #000000; stroke-width: 0.8"/>
      </g>
     </g>
     <g id="text_18">
      <text style="font: 10px 'DejaVu Sans'; text-anchor: middle" x="303.446448" y="219.868562" transform="rotate(-0 303.446448 219.868562)">1.10</text>
     </g>
    </g>
    <g id="xtick_7">
     <g id="line2d_19">
      <g>
       <use xlink:href="#m3086b16a1d" x="343.107978" y="205.270125" style="stroke: #000000; stroke-width: 0.8"/>
      </g>
     </g>
     <g id="text_19">
      <text style="font: 10px 'DejaVu Sans'; text-anchor: middle" x="343.107978" y="219.868562" transform="rotate(-0 343.107978 219.868562)">1.15</text>
     </g>
    </g>
    <g id="xtick_8">
     <g id="line2d_20">
      <g>
       <use xlink:href="#m3086b16a1d" x="382.769508" y="205.270125" style="stroke: #000000; stroke-width: 0.8"/>
      </g>
     </g>
     <g id="text_20">
      <text style="font: 10px 'DejaVu Sans'; text-anchor: middle" x="382.769508" y="219.868562" transform="rotate(-0 382.769508 219.868562)">1.20</text>
     </g>
    </g>
    <g id="xtick_9">
     <g id="line2d_21">
      <g>
       <use xlink:href="#m3086b16a1d" x="422.431037" y="205.270125" style="stroke: #000000; stroke-width: 0.8"/>
      </g>
     </g>
     <g id="text_21">
      <text style="font: 10px 'DejaVu Sans'; text-anchor: middle" x="422.431037" y="219.868562" transform="rotate(-0 422.431037 219.868562)">1.25</text>
     </g>
    </g>
    <g id="xtick_10">
     <g id="line2d_22">
      <g>
       <use xlink:href="#m3086b16a1d" x="462.092567" y="205.270125" style="stroke: #000000; stroke-width: 0.8"/>
      </g>
     </g>
     <g id="text_22">
      <text style="font: 10px 'DejaVu Sans'; text-anchor: middle" x="462.092567" y="219.868562" transform="rotate(-0 462.092567 219.868562)">1.30</text>
     </g>
    </g>
    <g id="text_23">
     <text style="font: 10px 'DejaVu Sans'; text-anchor: middle" x="378.58125" y="233.546687" transform="rotate(-0 378.58125 233.546687)">Communication ratio</text>
    </g>
   </g>
   <g id="matplotlib.axis_4">
    <g id="ytick_7">
     <g id="line2d_23">
      <g>
       <use xlink:href="#meee36cc1a8" x="280.110662" y="200.092238" style="stroke: #000000; stroke-width: 0.8"/>
      </g>
     </g>
     <g id="text_24">
      <text style="font: 10px 'DejaVu Sans'; text-anchor: end" x="273.110662" y="203.891457" transform="rotate(-0 273.110662 203.891457)">0.0</text>
     </g>
    </g>
    <g id="ytick_8">
     <g id="line2d_24">
      <g>
       <use xlink:href="#meee36cc1a8" x="280.110662" y="165.572993" style="stroke: #000000; stroke-width: 0.8"/>
      </g>
     </g>
     <g id="text_25">
      <text style="font: 10px 'DejaVu Sans'; text-anchor: end" x="273.110662" y="169.372212" transform="rotate(-0 273.110662 169.372212)">0.2</text>
     </g>
    </g>
    <g id="ytick_9">
     <g id="line2d_25">
      <g>
       <use xlink:href="#meee36cc1a8" x="280.110662" y="131.053748" style="stroke: #000000; stroke-width: 0.8"/>
      </g>
     </g>
     <g id="text_26">
      <text style="font: 10px 'DejaVu Sans'; text-anchor: end" x="273.110662" y="134.852966" transform="rotate(-0 273.110662 134.852966)">0.4</text>
     </g>
    </g>
    <g id="ytick_10">
     <g id="line2d_26">
      <g>
       <use xlink:href="#meee36cc1a8" x="280.110662" y="96.534502" style="stroke: #000000; stroke-width: 0.8"/>
      </g>
     </g>
     <g id="text_27">
      <text style="font: 10px 'DejaVu Sans'; text-anchor: end" x="273.110662" y="100.333721" transform="rotate(-0 273.110662 100.333721)">0.6</text>
     </g>
    </g>
    <g id="ytick_11">
     <g id="line2d_27">
      <g>
       <use xlink:href="#meee36cc1a8" x="280.110662" y="62.015257" style="stroke: #000000; stroke-width: 0.8"/>
      </g>
     </g>
     <g id="text_28">
      <text style="font: 10px 'DejaVu Sans'; text-anchor: end" x="273.110662" y="65.814476" transform="rotate(-0 273.110662 65.814476)">0.8</text>
     </g>
    </g>
    <g id="ytick_12">
     <g id="line2d_28">
      <g>
       <use xlink:href="#meee36cc1a8" x="280.110662" y="27.496012" style="stroke: #000000; stroke-width: 0.8"/>
      </g>
     </g>
     <g id="text_29">
      <text style="font: 10px 'DejaVu Sans'; text-anchor: end" x="273.110662" y="31.295231" transform="rotate(-0 273.110662 31.295231)">1.0</text>
     </g>
    </g>
    <g id="text_30">
     <text style="font: 10px 'DejaVu Sans'; text-anchor: middle" x="251.127849" y="113.794125" transform="rotate(-90 251.127849 113.794125)">Success probability</text>
    </g>
   </g>
   <g id="line2d_29">
    <path d="M 380.527309 200.092238 
L 381.986853 200.092238 
L 383.446398 200.092238 
L 384.905942 200.092238 
L 386.365486 200.092238 
L 387.825031 200.092238 
L 389.284575 200.092238 
L 390.744119 200.092238 
L 392.203663 200.092238 
L 393.663208 200.092238 
L 395.122752 200.092238 
L 396.582296 200.092238 
L 398.041841 200.092238 
L 399.501385 200.092238 
L 400.960929 200.092238 
L 402.420473 200.092238 
L 403.880018 200.092238 
L 405.339562 200.092238 
L 406.799106 196.640314 
L 408.258651 198.366276 
L 409.718195 194.914351 
L 411.177739 189.736465 
L 412.637283 193.188389 
L 414.096828 182.832616 
L 415.556372 170.75088 
L 417.015916 162.121068 
L 418.475461 155.217219 
L 419.935005 120.697974 
L 421.394549 113.794125 
L 422.854094 96.534502 
L 424.313638 67.193144 
L 425.773182 62.015257 
L 427.232726 43.029672 
L 428.692271 34.399861 
L 430.151815 37.851785 
L 431.611359 32.673899 
L 433.070904 30.947936 
L 434.530448 29.221974 
L 435.989992 27.496012 
L 437.449536 27.496012 
L 438.909081 27.496012 
L 440.368625 27.496012 
L 441.828169 27.496012 
L 443.287714 27.496012 
L 444.747258 27.496012 
L 446.206802 27.496012 
L 447.666346 27.496012 
L 449.125891 27.496012 
L 450.585435 27.496012 
L 452.044979 27.496012 
L 453.504524 27.496012 
L 454.964068 27.496012 
L 456.423612 27.496012 
L 457.883157 27.496012 
L 459.342701 27.496012 
L 460.802245 27.496012 
L 462.261789 27.496012 
" clip-path="url(#p2a19e5aef6)" style="fill: none; stroke: #1f77b4; stroke-width: 1.5; stroke-linecap: square"/>
   </g>
   <g id="line2d_30">
    <path d="M 363.012778 200.092238 
L 364.472322 200.092238 
L 365.931866 200.092238 
L 367.39141 200.092238 
L 368.850955 200.092238 
L 370.310499 200.092238 
L 371.770043 198.366276 
L 373.229588 200.092238 
L 374.689132 200.092238 
L 376.148676 200.092238 
L 377.60822 200.092238 
L 379.067765 196.640314 
L 380.527309 194.914351 
L 381.986853 198.366276 
L 383.446398 193.188389 
L 384.905942 194.914351 
L 386.365486 191.462427 
L 387.825031 191.462427 
L 389.284575 189.736465 
L 390.744119 188.010502 
L 392.203663 170.75088 
L 393.663208 179.380691 
L 395.122752 170.75088 
L 396.582296 156.943182 
L 398.041841 150.039333 
L 399.501385 163.847031 
L 400.960929 150.039333 
L 402.420473 137.957597 
L 403.880018 112.068163 
L 405.339562 108.616238 
L 406.799106 101.712389 
L 408.258651 84.452767 
L 409.718195 91.356616 
L 411.177739 75.822955 
L 412.637283 79.27488 
L 414.096828 82.726804 
L 415.556372 79.27488 
L 417.015916 65.467182 
L 418.475461 55.111408 
L 419.935005 53.385446 
L 421.394549 62.015257 
L 422.854094 51.659483 
L 424.313638 53.385446 
L 425.773182 46.481597 
L 427.232726 36.125823 
L 428.692271 37.851785 
L 430.151815 39.577748 
L 431.611359 30.947936 
L 433.070904 30.947936 
L 434.530448 32.673899 
L 435.989992 29.221974 
L 437.449536 30.947936 
L 438.909081 30.947936 
L 440.368625 29.221974 
L 441.828169 29.221974 
L 443.287714 27.496012 
L 444.747258 27.496012 
L 446.206802 27.496012 
L 447.666346 29.221974 
L 449.125891 27.496012 
L 450.585435 29.221974 
L 452.044979 27.496012 
L 453.504524 27.496012 
L 454.964068 27.496012 
L 456.423612 27.496012 
L 457.883157 27.496012 
L 459.342701 27.496012 
L 460.802245 27.496012 
L 462.261789 27.496012 
L 463.721334 27.496012 
L 465.180878 27.496012 
L 466.640422 27.496012 
L 468.099967 27.496012 
" clip-path="url(#p2a19e5aef6)" style="fill: none; stroke: #ff7f0e; stroke-width: 1.5; stroke-linecap: square"/>
   </g>
   <g id="line2d_31">
    <path d="M 289.062533 200.092238 
L 290.522078 200.092238 
L 291.981622 200.092238 
L 293.441166 200.092238 
L 294.900711 200.092238 
L 296.360255 200.092238 
L 297.819799 200.092238 
L 299.279343 200.092238 
L 300.738888 200.092238 
L 302.198432 200.092238 
L 303.657976 200.092238 
L 305.117521 200.092238 
L 306.577065 200.092238 
L 308.036609 200.092238 
L 309.496154 200.092238 
L 310.955698 200.092238 
L 312.415242 200.092238 
L 313.874786 200.092238 
L 315.334331 200.092238 
L 316.793875 200.092238 
L 318.253419 193.188389 
L 319.712964 198.366276 
L 321.172508 189.736465 
L 322.632052 191.462427 
L 324.091596 175.928767 
L 325.551141 188.010502 
L 327.010685 167.298955 
L 328.470229 160.395106 
L 329.929774 162.121068 
L 331.389318 150.039333 
L 332.848862 129.327785 
L 334.308406 137.957597 
L 335.767951 127.601823 
L 337.227495 105.164314 
L 338.687039 93.082578 
L 340.146584 93.082578 
L 341.606128 72.371031 
L 343.065672 67.193144 
L 344.525217 55.111408 
L 345.984761 55.111408 
L 347.444305 41.30371 
L 348.903849 44.755634 
L 350.363394 39.577748 
L 351.822938 39.577748 
L 353.282482 41.30371 
L 354.742027 37.851785 
L 356.201571 29.221974 
L 357.661115 34.399861 
L 359.120659 32.673899 
L 360.580204 27.496012 
L 362.039748 27.496012 
L 363.499292 27.496012 
L 364.958837 27.496012 
L 366.418381 27.496012 
L 367.877925 29.221974 
L 369.337469 30.947936 
L 370.797014 27.496012 
L 372.256558 27.496012 
L 373.716102 27.496012 
L 375.175647 27.496012 
L 376.635191 27.496012 
L 378.094735 27.496012 
L 379.55428 27.496012 
L 381.013824 27.496012 
L 382.473368 27.496012 
L 383.932912 27.496012 
L 385.392457 27.496012 
L 386.852001 27.496012 
" clip-path="url(#p2a19e5aef6)" style="fill: none; stroke: #2ca02c; stroke-width: 1.5; stroke-linecap: square"/>
   </g>
   <g id="patch_9">
    <path d="M 280.110662 205.270125 
L 280.110662 22.318125 
" style="fill: none; stroke: #000000; stroke-width: 0.8; stroke-linejoin: miter; stroke-linecap: square"/>
   </g>
   <g id="patch_10">
    <path d="M 477.051838 205.270125 
L 477.051838 22.318125 
" style="fill: none; stroke: #000000; stroke-width: 0.8; stroke-linejoin: miter; stroke-linecap: square"/>
   </g>
   <g id="patch_11">
    <path d="M 280.110662 205.270125 
L 477.051838 205.270125 
" style="fill: none; stroke: #000000; stroke-width: 0.8; stroke-linejoin: miter; stroke-linecap: square"/>
   </g>
   <g id="patch_12">
    <path d="M 280.110662 22.318125 
L 477.051838 22.318125 
" style="fill: none; stroke: #000000; stroke-width: 0.8; stroke-linejoin: miter; stroke-linecap: square"/>
   </g>
   <g id="text_31">
    <text style="font: 12px 'DejaVu Sans'; text-anchor: middle" x="378.58125" y="16.318125" transform="rotate(-0 378.58125 16.318125)">k=2, ell=6</text>
   </g>
   <g id="legend_2">
    <g id="patch_13">
     <path d="M 285.710662 132.607875 
L 360.914412 132.607875 
Q 362.514412 132.607875 362.514412 131.007875 
L 362.514412 96.580375 
Q 362.514412 94.980375 360.914412 94.980375 
L 285.710662 94.980375 
Q 284.110662 94.980375 284.110662 96.580375 
L 284.110662 131.007875 
Q 284.110662 132.607875 285.710662 132.607875 
z
" style="fill: #ffffff; opacity: 0.8; stroke: #cccccc; stroke-linejoin: miter"/>
    </g>
    <g id="line2d_32">
     <path d="M 287.310662 101.459125 
L 295.310662 101.459125 
L 303.310662 101.459125 
" style="fill: none; stroke: #1f77b4; stroke-width: 1.5; stroke-linecap: square"/>
    </g>
    <g id="text_32">
     <text style="font: 8px 'DejaVu Sans'; text-anchor: start" x="309.710662" y="104.259125" transform="rotate(-0 309.710662 104.259125)">i.i.d.</text>
    </g>
    <g id="line2d_33">
     <path d="M 287.310662 113.201625 
L 295.310662 113.201625 
L 303.310662 113.201625 
" style="fill: none; stroke: #ff7f0e; stroke-width: 1.5; stroke-linecap: square"/>
    </g>
    <g id="text_33">
     <text style="font: 8px 'DejaVu Sans'; text-anchor: start" x="309.710662" y="116.001625" transform="rotate(-0 309.710662 116.001625)">Standard SC</text>
    </g>
    <g id="line2d_34">
     <path d="M 287.310662 124.944125 
L 295.310662 124.944125 
L 303.310662 124.944125 
" style="fill: none; stroke: #2ca02c; stroke-width: 1.5; stroke-linecap: square"/>
    </g>
    <g id="text_34">
     <text style="font: 8px 'DejaVu Sans'; text-anchor: start" x="309.710662" y="127.744125" transform="rotate(-0 309.710662 127.744125)">Circular SC</text>
    </g>
   </g>
  </g>
  <g id="axes_3">
   <g id="patch_14">
    <path d="M 516.440074 205.270125 
L 713.38125 205.270125 
L 713.38125 22.318125 
L 516.440074 22.318125 
z
" style="fill: #ffffff"/>
   </g>
   <g id="PolyCollection_7">
    <defs>
     <path id="m67f96f791f" d="M 661.82906 -49.119075 
L 661.82906 -42.734137 
L 662.563548 -42.734137 
L 663.298037 -42.734137 
L 664.032525 -42.734137 
L 664.767013 -42.734137 
L 665.501501 -42.734137 
L 666.23599 -42.734137 
L 666.970478 -42.734137 
L 667.704966 -42.734137 
L 668.439454 -42.734137 
L 669.173943 -42.734137 
L 669.908431 -42.734137 
L 670.642919 -42.734137 
L 671.377407 -42.734137 
L 672.111896 -42.734137 
L 672.846384 -43.039189 
L 673.580872 -43.039189 
L 674.31536 -43.039189 
L 675.049849 -43.039189 
L 675.784337 -43.683756 
L 676.518825 -43.683756 
L 677.253313 -47.529917 
L 677.987802 -49.826713 
L 678.72229 -61.536021 
L 679.456778 -65.752766 
L 680.191266 -83.586192 
L 680.925754 -73.01651 
L 681.660243 -75.992712 
L 682.394731 -104.203485 
L 683.129219 -105.836712 
L 683.863707 -129.377889 
L 684.598196 -129.377889 
L 685.332684 -147.008398 
L 686.067172 -173.1819 
L 686.80166 -171.235471 
L 687.536149 -169.303509 
L 688.270637 -193.795851 
L 689.005125 -193.795851 
L 689.739613 -191.59922 
L 690.474102 -203.246592 
L 691.20859 -200.74264 
L 691.943078 -208.945425 
L 692.677566 -208.945425 
L 693.412055 -205.926251 
L 694.146543 -208.945425 
L 694.881031 -208.945425 
L 695.615519 -208.945425 
L 696.350008 -208.945425 
L 697.084496 -208.945425 
L 697.818984 -208.945425 
L 698.553472 -208.945425 
L 699.287961 -208.945425 
L 700.022449 -208.945425 
L 700.756937 -208.945425 
L 701.491425 -208.945425 
L 702.225914 -208.945425 
L 702.960402 -208.945425 
L 703.69489 -208.945425 
L 704.429378 -208.945425 
L 704.429378 -215.330363 
L 704.429378 -215.330363 
L 703.69489 -215.330363 
L 702.960402 -215.330363 
L 702.225914 -215.330363 
L 701.491425 -215.330363 
L 700.756937 -215.330363 
L 700.022449 -215.330363 
L 699.287961 -215.330363 
L 698.553472 -215.330363 
L 697.818984 -215.330363 
L 697.084496 -215.330363 
L 696.350008 -215.330363 
L 695.615519 -215.330363 
L 694.881031 -215.330363 
L 694.146543 -215.330363 
L 693.412055 -215.025311 
L 692.677566 -215.330363 
L 691.943078 -215.330363 
L 691.20859 -213.560471 
L 690.474102 -214.380744 
L 689.739613 -209.406988 
L 689.005125 -210.534583 
L 688.270637 -210.534583 
L 687.536149 -195.136216 
L 686.80166 -196.528479 
L 686.067172 -197.906276 
L 685.332684 -177.540617 
L 684.598196 -161.928869 
L 683.863707 -161.928869 
L 683.129219 -138.930885 
L 682.394731 -137.239886 
L 681.660243 -105.614596 
L 680.925754 -101.942346 
L 680.191266 -114.642244 
L 679.456778 -92.584961 
L 678.72229 -86.829029 
L 677.987802 -68.620305 
L 677.253313 -64.268649 
L 676.518825 -54.817908 
L 675.784337 -54.817908 
L 675.049849 -52.138249 
L 674.31536 -52.138249 
L 673.580872 -52.138249 
L 672.846384 -52.138249 
L 672.111896 -49.119075 
L 671.377407 -49.119075 
L 670.642919 -49.119075 
L 669.908431 -49.119075 
L 669.173943 -49.119075 
L 668.439454 -49.119075 
L 667.704966 -49.119075 
L 666.970478 -49.119075 
L 666.23599 -49.119075 
L 665.501501 -49.119075 
L 664.767013 -49.119075 
L 664.032525 -49.119075 
L 663.298037 -49.119075 
L 662.563548 -49.119075 
L 661.82906 -49.119075 
z
" style="stroke: #1f77b4; stroke-opacity: 0.14"/>
    </defs>
    <g clip-path="url(#p1d5816a6b9)">
     <use xlink:href="#m67f96f791f" x="0" y="242.826375" style="fill: #1f77b4; fill-opacity: 0.14; stroke: #1f77b4; stroke-opacity: 0.14"/>
    </g>
   </g>
   <g id="PolyCollection_8">
    <defs>
     <path id="m84a1c0bcb2" d="M 542.47472 -49.119075 
L 542.47472 -42.734137 
L 543.209208 -42.734137 
L 543.943697 -42.734137 
L 544.678185 -42.734137 
L 545.412673 -42.734137 
L 546.147161 -42.734137 
L 546.88165 -42.734137 
L 547.616138 -42.734137 
L 548.350626 -42.734137 
L 549.085114 -42.734137 
L 549.819603 -42.734137 
L 550.554091 -42.734137 
L 551.288579 -42.734137 
L 552.023067 -43.039189 
L 552.757556 -42.734137 
L 553.492044 -42.734137 
L 554.226532 -42.734137 
L 554.96102 -42.734137 
L 555.695509 -42.734137 
L 556.429997 -42.734137 
L 557.164485 -43.039189 
L 557.898973 -43.039189 
L 558.633462 -43.039189 
L 559.36795 -42.734137 
L 560.102438 -44.504029 
L 560.836926 -47.529917 
L 561.571415 -43.683756 
L 562.305903 -47.529917 
L 563.040391 -44.504029 
L 563.774879 -52.266477 
L 564.509368 -49.826713 
L 565.243856 -48.657512 
L 565.978344 -56.122715 
L 566.712832 -54.814848 
L 567.447321 -65.752766 
L 568.181809 -65.752766 
L 568.916297 -58.795916 
L 569.650785 -67.183521 
L 570.385274 -71.542735 
L 571.119762 -70.079016 
L 571.85425 -82.051035 
L 572.588738 -71.542735 
L 573.323227 -109.122502 
L 574.057715 -92.955495 
L 574.792203 -105.836712 
L 575.526691 -107.476393 
L 576.261179 -117.44907 
L 576.995668 -110.775019 
L 577.730156 -127.653948 
L 578.464644 -125.936714 
L 579.199132 -138.101221 
L 579.933621 -150.62744 
L 580.668109 -143.422256 
L 581.402597 -143.422256 
L 582.137085 -157.972605 
L 582.871574 -167.385124 
L 583.606062 -167.385124 
L 584.34055 -167.385124 
L 585.075038 -167.385124 
L 585.809527 -179.119068 
L 586.544015 -175.143818 
L 587.278503 -171.235471 
L 588.012991 -193.795851 
L 588.74748 -187.324532 
L 589.481968 -189.444195 
L 590.216456 -185.235508 
L 590.950944 -189.444195 
L 591.685433 -196.042654 
L 592.419921 -198.351949 
L 593.154409 -193.795851 
L 593.888897 -193.795851 
L 594.623386 -196.042654 
L 595.357874 -196.042654 
L 596.092362 -196.042654 
L 596.82685 -198.351949 
L 597.561339 -203.246592 
L 598.295827 -205.926251 
L 599.030315 -205.926251 
L 599.764803 -203.246592 
L 600.499292 -205.926251 
L 601.23378 -208.945425 
L 601.968268 -205.926251 
L 602.702756 -208.945425 
L 603.437245 -205.926251 
L 604.171733 -208.945425 
L 604.906221 -208.945425 
L 605.640709 -208.945425 
L 606.375198 -203.246592 
L 607.109686 -203.246592 
L 607.844174 -208.945425 
L 608.578662 -208.945425 
L 609.313151 -208.945425 
L 610.047639 -208.945425 
L 610.782127 -208.945425 
L 611.516615 -208.945425 
L 612.251104 -208.945425 
L 612.985592 -208.945425 
L 612.985592 -215.330363 
L 612.985592 -215.330363 
L 612.251104 -215.330363 
L 611.516615 -215.330363 
L 610.782127 -215.330363 
L 610.047639 -215.330363 
L 609.313151 -215.330363 
L 608.578662 -215.330363 
L 607.844174 -215.330363 
L 607.109686 -214.380744 
L 606.375198 -214.380744 
L 605.640709 -215.330363 
L 604.906221 -215.330363 
L 604.171733 -215.330363 
L 603.437245 -215.025311 
L 602.702756 -215.330363 
L 601.968268 -215.025311 
L 601.23378 -215.330363 
L 600.499292 -215.025311 
L 599.764803 -214.380744 
L 599.030315 -215.025311 
L 598.295827 -215.025311 
L 597.561339 -214.380744 
L 596.82685 -212.626936 
L 596.092362 -211.612005 
L 595.357874 -211.612005 
L 594.623386 -211.612005 
L 593.888897 -210.534583 
L 593.154409 -210.534583 
L 592.419921 -212.626936 
L 591.685433 -211.612005 
L 590.950944 -208.237787 
L 590.216456 -205.798023 
L 589.481968 -208.237787 
L 588.74748 -207.033224 
L 588.012991 -210.534583 
L 587.278503 -196.528479 
L 586.544015 -199.268584 
L 585.809527 -201.941785 
L 585.075038 -193.730374 
L 584.34055 -193.730374 
L 583.606062 -193.730374 
L 582.871574 -193.730374 
L 582.137085 -186.521765 
L 581.402597 -174.478308 
L 580.668109 -174.478308 
L 579.933621 -180.570027 
L 579.199132 -169.826666 
L 578.464644 -158.721592 
L 577.730156 -160.328583 
L 576.995668 -143.965255 
L 576.261179 -150.588107 
L 575.526691 -140.61543 
L 574.792203 -138.930885 
L 574.057715 -125.218296 
L 573.323227 -142.293547 
L 572.588738 -100.091895 
L 571.85425 -112.853176 
L 571.119762 -98.231389 
L 570.385274 -100.091895 
L 569.650785 -94.478432 
L 568.916297 -82.920682 
L 568.181809 -92.584961 
L 567.447321 -92.584961 
L 566.712832 -76.929073 
L 565.978344 -78.945432 
L 565.243856 -66.46528 
L 564.509368 -68.620305 
L 563.774879 -72.828992 
L 563.040391 -57.32186 
L 562.305903 -64.268649 
L 561.571415 -54.817908 
L 560.836926 -64.268649 
L 560.102438 -57.32186 
L 559.36795 -49.119075 
L 558.633462 -52.138249 
L 557.898973 -52.138249 
L 557.164485 -52.138249 
L 556.429997 -49.119075 
L 555.695509 -49.119075 
L 554.96102 -49.119075 
L 554.226532 -49.119075 
L 553.492044 -49.119075 
L 552.757556 -49.119075 
L 552.023067 -52.138249 
L 551.288579 -49.119075 
L 550.554091 -49.119075 
L 549.819603 -49.119075 
L 549.085114 -49.119075 
L 548.350626 -49.119075 
L 547.616138 -49.119075 
L 546.88165 -49.119075 
L 546.147161 -49.119075 
L 545.412673 -49.119075 
L 544.678185 -49.119075 
L 543.943697 -49.119075 
L 543.209208 -49.119075 
L 542.47472 -49.119075 
z
" style="stroke: #ff7f0e; stroke-opacity: 0.14"/>
    </defs>
    <g clip-path="url(#p1d5816a6b9)">
     <use xlink:href="#m84a1c0bcb2" x="0" y="242.826375" style="fill: #ff7f0e; fill-opacity: 0.14; stroke: #ff7f0e; stroke-opacity: 0.14"/>
    </g>
   </g>
   <g id="PolyCollection_9">
    <defs>
     <path id="m0c3edee859" d="M 525.391945 -49.119075 
L 525.391945 -42.734137 
L 526.126433 -42.734137 
L 526.860922 -42.734137 
L 527.59541 -42.734137 
L 528.329898 -42.734137 
L 529.064386 -43.039189 
L 529.798875 -42.734137 
L 530.533363 -42.734137 
L 531.267851 -43.039189 
L 532.002339 -42.734137 
L 532.736828 -43.683756 
L 533.471316 -44.504029 
L 534.205804 -43.683756 
L 534.940292 -45.437564 
L 535.674781 -53.528644 
L 536.409269 -47.529917 
L 537.143757 -49.826713 
L 537.878245 -54.814848 
L 538.612734 -56.122715 
L 539.347222 -58.795916 
L 540.08171 -71.542735 
L 540.816198 -79.00495 
L 541.550687 -71.542735 
L 542.285175 -85.12916 
L 543.019663 -94.542129 
L 543.754151 -94.542129 
L 544.48864 -102.576746 
L 545.223128 -112.433935 
L 545.957616 -119.133615 
L 546.692104 -124.226117 
L 547.426593 -129.377889 
L 548.161081 -129.377889 
L 548.895569 -125.936714 
L 549.630057 -141.640998 
L 550.364546 -138.101221 
L 551.099034 -156.122154 
L 551.833522 -167.385124 
L 552.56801 -169.303509 
L 553.302499 -163.586068 
L 554.036987 -177.122412 
L 554.771475 -150.62744 
L 555.505963 -179.119068 
L 556.240452 -167.385124 
L 556.97494 -169.303509 
L 557.709428 -177.122412 
L 558.443916 -193.795851 
L 559.178404 -191.59922 
L 559.912893 -181.135427 
L 560.647381 -196.042654 
L 561.381869 -200.74264 
L 562.116357 -200.74264 
L 562.850846 -191.59922 
L 563.585334 -203.246592 
L 564.319822 -203.246592 
L 565.05431 -196.042654 
L 565.788799 -200.74264 
L 566.523287 -200.74264 
L 567.257775 -205.926251 
L 567.992263 -200.74264 
L 568.726752 -203.246592 
L 569.46124 -203.246592 
L 570.195728 -198.351949 
L 570.930216 -205.926251 
L 571.664705 -198.351949 
L 572.399193 -205.926251 
L 573.133681 -203.246592 
L 573.868169 -208.945425 
L 574.602658 -208.945425 
L 575.337146 -208.945425 
L 576.071634 -208.945425 
L 576.806122 -208.945425 
L 577.540611 -205.926251 
L 578.275099 -208.945425 
L 579.009587 -208.945425 
L 579.744075 -205.926251 
L 580.478564 -208.945425 
L 581.213052 -208.945425 
L 581.94754 -208.945425 
L 582.682028 -208.945425 
L 583.416517 -208.945425 
L 584.151005 -208.945425 
L 584.885493 -208.945425 
L 585.619981 -208.945425 
L 586.35447 -208.945425 
L 587.088958 -208.945425 
L 587.088958 -215.330363 
L 587.088958 -215.330363 
L 586.35447 -215.330363 
L 585.619981 -215.330363 
L 584.885493 -215.330363 
L 584.151005 -215.330363 
L 583.416517 -215.330363 
L 582.682028 -215.330363 
L 581.94754 -215.330363 
L 581.213052 -215.330363 
L 580.478564 -215.330363 
L 579.744075 -215.025311 
L 579.009587 -215.330363 
L 578.275099 -215.330363 
L 577.540611 -215.025311 
L 576.806122 -215.330363 
L 576.071634 -215.330363 
L 575.337146 -215.330363 
L 574.602658 -215.330363 
L 573.868169 -215.330363 
L 573.133681 -214.380744 
L 572.399193 -215.025311 
L 571.664705 -212.626936 
L 570.930216 -215.025311 
L 570.195728 -212.626936 
L 569.46124 -214.380744 
L 568.726752 -214.380744 
L 567.992263 -213.560471 
L 567.257775 -215.025311 
L 566.523287 -213.560471 
L 565.788799 -213.560471 
L 565.05431 -211.612005 
L 564.319822 -214.380744 
L 563.585334 -214.380744 
L 562.850846 -209.406988 
L 562.116357 -213.560471 
L 561.381869 -213.560471 
L 560.647381 -211.612005 
L 559.912893 -203.249652 
L 559.178404 -209.406988 
L 558.443916 -210.534583 
L 557.709428 -200.614216 
L 556.97494 -195.136216 
L 556.240452 -193.730374 
L 555.505963 -201.941785 
L 554.771475 -180.570027 
L 554.036987 -200.614216 
L 553.302499 -190.880979 
L 552.56801 -195.136216 
L 551.833522 -193.730374 
L 551.099034 -185.04799 
L 550.364546 -169.826666 
L 549.630057 -172.93534 
L 548.895569 -158.721592 
L 548.161081 -161.928869 
L 547.426593 -161.928869 
L 546.692104 -157.107963 
L 545.957616 -152.227788 
L 545.223128 -145.630565 
L 544.48864 -135.542399 
L 543.754151 -126.955888 
L 543.019663 -126.955888 
L 542.285175 -116.423502 
L 541.550687 -100.091895 
L 540.816198 -109.250809 
L 540.08171 -100.091895 
L 539.347222 -82.920682 
L 538.612734 -78.945432 
L 537.878245 -76.929073 
L 537.143757 -68.620305 
L 536.409269 -64.268649 
L 535.674781 -74.891051 
L 534.940292 -59.712551 
L 534.205804 -54.817908 
L 533.471316 -57.32186 
L 532.736828 -54.817908 
L 532.002339 -49.119075 
L 531.267851 -52.138249 
L 530.533363 -49.119075 
L 529.798875 -49.119075 
L 529.064386 -52.138249 
L 528.329898 -49.119075 
L 527.59541 -49.119075 
L 526.860922 -49.119075 
L 526.126433 -49.119075 
L 525.391945 -49.119075 
z
" style="stroke: #2ca02c; stroke-opacity: 0.14"/>
    </defs>
    <g clip-path="url(#p1d5816a6b9)">
     <use xlink:href="#m0c3edee859" x="0" y="242.826375" style="fill: #2ca02c; fill-opacity: 0.14; stroke: #2ca02c; stroke-opacity: 0.14"/>
    </g>
   </g>
   <g id="matplotlib.axis_5">
    <g id="xtick_11">
     <g id="line2d_35">
      <g>
       <use xlink:href="#m3086b16a1d" x="544.926963" y="205.270125" style="stroke: #000000; stroke-width: 0.8"/>
      </g>
     </g>
     <g id="text_35">
      <text style="font: 10px 'DejaVu Sans'; text-anchor: middle" x="544.926963" y="219.868562" transform="rotate(-0 544.926963 219.868562)">1.2</text>
     </g>
    </g>
    <g id="xtick_12">
     <g id="line2d_36">
      <g>
       <use xlink:href="#m3086b16a1d" x="589.351655" y="205.270125" style="stroke: #000000; stroke-width: 0.8"/>
      </g>
     </g>
     <g id="text_36">
      <text style="font: 10px 'DejaVu Sans'; text-anchor: middle" x="589.351655" y="219.868562" transform="rotate(-0 589.351655 219.868562)">1.3</text>
     </g>
    </g>
    <g id="xtick_13">
     <g id="line2d_37">
      <g>
       <use xlink:href="#m3086b16a1d" x="633.776348" y="205.270125" style="stroke: #000000; stroke-width: 0.8"/>
      </g>
     </g>
     <g id="text_37">
      <text style="font: 10px 'DejaVu Sans'; text-anchor: middle" x="633.776348" y="219.868562" transform="rotate(-0 633.776348 219.868562)">1.4</text>
     </g>
    </g>
    <g id="xtick_14">
     <g id="line2d_38">
      <g>
       <use xlink:href="#m3086b16a1d" x="678.20104" y="205.270125" style="stroke: #000000; stroke-width: 0.8"/>
      </g>
     </g>
     <g id="text_38">
      <text style="font: 10px 'DejaVu Sans'; text-anchor: middle" x="678.20104" y="219.868562" transform="rotate(-0 678.20104 219.868562)">1.5</text>
     </g>
    </g>
    <g id="text_39">
     <text style="font: 10px 'DejaVu Sans'; text-anchor: middle" x="614.910662" y="233.546687" transform="rotate(-0 614.910662 233.546687)">Communication ratio</text>
    </g>
   </g>
   <g id="matplotlib.axis_6">
    <g id="ytick_13">
     <g id="line2d_39">
      <g>
       <use xlink:href="#meee36cc1a8" x="516.440074" y="200.092238" style="stroke: #000000; stroke-width: 0.8"/>
      </g>
     </g>
     <g id="text_40">
      <text style="font: 10px 'DejaVu Sans'; text-anchor: end" x="509.440074" y="203.891457" transform="rotate(-0 509.440074 203.891457)">0.0</text>
     </g>
    </g>
    <g id="ytick_14">
     <g id="line2d_40">
      <g>
       <use xlink:href="#meee36cc1a8" x="516.440074" y="165.572993" style="stroke: #000000; stroke-width: 0.8"/>
      </g>
     </g>
     <g id="text_41">
      <text style="font: 10px 'DejaVu Sans'; text-anchor: end" x="509.440074" y="169.372212" transform="rotate(-0 509.440074 169.372212)">0.2</text>
     </g>
    </g>
    <g id="ytick_15">
     <g id="line2d_41">
      <g>
       <use xlink:href="#meee36cc1a8" x="516.440074" y="131.053748" style="stroke: #000000; stroke-width: 0.8"/>
      </g>
     </g>
     <g id="text_42">
      <text style="font: 10px 'DejaVu Sans'; text-anchor: end" x="509.440074" y="134.852966" transform="rotate(-0 509.440074 134.852966)">0.4</text>
     </g>
    </g>
    <g id="ytick_16">
     <g id="line2d_42">
      <g>
       <use xlink:href="#meee36cc1a8" x="516.440074" y="96.534502" style="stroke: #000000; stroke-width: 0.8"/>
      </g>
     </g>
     <g id="text_43">
      <text style="font: 10px 'DejaVu Sans'; text-anchor: end" x="509.440074" y="100.333721" transform="rotate(-0 509.440074 100.333721)">0.6</text>
     </g>
    </g>
    <g id="ytick_17">
     <g id="line2d_43">
      <g>
       <use xlink:href="#meee36cc1a8" x="516.440074" y="62.015257" style="stroke: #000000; stroke-width: 0.8"/>
      </g>
     </g>
     <g id="text_44">
      <text style="font: 10px 'DejaVu Sans'; text-anchor: end" x="509.440074" y="65.814476" transform="rotate(-0 509.440074 65.814476)">0.8</text>
     </g>
    </g>
    <g id="ytick_18">
     <g id="line2d_44">
      <g>
       <use xlink:href="#meee36cc1a8" x="516.440074" y="27.496012" style="stroke: #000000; stroke-width: 0.8"/>
      </g>
     </g>
     <g id="text_45">
      <text style="font: 10px 'DejaVu Sans'; text-anchor: end" x="509.440074" y="31.295231" transform="rotate(-0 509.440074 31.295231)">1.0</text>
     </g>
    </g>
    <g id="text_46">
     <text style="font: 10px 'DejaVu Sans'; text-anchor: middle" x="487.457261" y="113.794125" transform="rotate(-90 487.457261 113.794125)">Success probability</text>
    </g>
   </g>
   <g id="line2d_45">
    <path d="M 661.82906 200.092238 
L 662.563548 200.092238 
L 663.298037 200.092238 
L 664.032525 200.092238 
L 664.767013 200.092238 
L 665.501501 200.092238 
L 666.23599 200.092238 
L 666.970478 200.092238 
L 667.704966 200.092238 
L 668.439454 200.092238 
L 669.173943 200.092238 
L 669.908431 200.092238 
L 670.642919 200.092238 
L 671.377407 200.092238 
L 672.111896 200.092238 
L 672.846384 198.366276 
L 673.580872 198.366276 
L 674.31536 198.366276 
L 675.049849 198.366276 
L 675.784337 196.640314 
L 676.518825 196.640314 
L 677.253313 189.736465 
L 677.987802 186.28454 
L 678.72229 170.75088 
L 679.456778 165.572993 
L 680.191266 144.861446 
L 680.925754 156.943182 
L 681.660243 153.491257 
L 682.394731 122.423936 
L 683.129219 120.697974 
L 683.863707 96.534502 
L 684.598196 96.534502 
L 685.332684 79.27488 
L 686.067172 55.111408 
L 686.80166 56.83737 
L 687.536149 58.563333 
L 688.270637 37.851785 
L 689.005125 37.851785 
L 689.739613 39.577748 
L 690.474102 30.947936 
L 691.20859 32.673899 
L 691.943078 27.496012 
L 692.677566 27.496012 
L 693.412055 29.221974 
L 694.146543 27.496012 
L 694.881031 27.496012 
L 695.615519 27.496012 
L 696.350008 27.496012 
L 697.084496 27.496012 
L 697.818984 27.496012 
L 698.553472 27.496012 
L 699.287961 27.496012 
L 700.022449 27.496012 
L 700.756937 27.496012 
L 701.491425 27.496012 
L 702.225914 27.496012 
L 702.960402 27.496012 
L 703.69489 27.496012 
L 704.429378 27.496012 
" clip-path="url(#p1d5816a6b9)" style="fill: none; stroke: #1f77b4; stroke-width: 1.5; stroke-linecap: square"/>
   </g>
   <g id="line2d_46">
    <path d="M 542.47472 200.092238 
L 543.209208 200.092238 
L 543.943697 200.092238 
L 544.678185 200.092238 
L 545.412673 200.092238 
L 546.147161 200.092238 
L 546.88165 200.092238 
L 547.616138 200.092238 
L 548.350626 200.092238 
L 549.085114 200.092238 
L 549.819603 200.092238 
L 550.554091 200.092238 
L 551.288579 200.092238 
L 552.023067 198.366276 
L 552.757556 200.092238 
L 553.492044 200.092238 
L 554.226532 200.092238 
L 554.96102 200.092238 
L 555.695509 200.092238 
L 556.429997 200.092238 
L 557.164485 198.366276 
L 557.898973 198.366276 
L 558.633462 198.366276 
L 559.36795 200.092238 
L 560.102438 194.914351 
L 560.836926 189.736465 
L 561.571415 196.640314 
L 562.305903 189.736465 
L 563.040391 194.914351 
L 563.774879 182.832616 
L 564.509368 186.28454 
L 565.243856 188.010502 
L 565.978344 177.654729 
L 566.712832 179.380691 
L 567.447321 165.572993 
L 568.181809 165.572993 
L 568.916297 174.202804 
L 569.650785 163.847031 
L 570.385274 158.669144 
L 571.119762 160.395106 
L 571.85425 146.587408 
L 572.588738 158.669144 
L 573.323227 117.24605 
L 574.057715 134.505672 
L 574.792203 120.697974 
L 575.526691 118.972012 
L 576.261179 108.616238 
L 576.995668 115.520087 
L 577.730156 98.260465 
L 578.464644 99.986427 
L 579.199132 87.904691 
L 579.933621 75.822955 
L 580.668109 82.726804 
L 581.402597 82.726804 
L 582.137085 68.919106 
L 582.871574 60.289295 
L 583.606062 60.289295 
L 584.34055 60.289295 
L 585.075038 60.289295 
L 585.809527 49.933521 
L 586.544015 53.385446 
L 587.278503 56.83737 
L 588.012991 37.851785 
L 588.74748 43.029672 
L 589.481968 41.30371 
L 590.216456 44.755634 
L 590.950944 41.30371 
L 591.685433 36.125823 
L 592.419921 34.399861 
L 593.154409 37.851785 
L 593.888897 37.851785 
L 594.623386 36.125823 
L 595.357874 36.125823 
L 596.092362 36.125823 
L 596.82685 34.399861 
L 597.561339 30.947936 
L 598.295827 29.221974 
L 599.030315 29.221974 
L 599.764803 30.947936 
L 600.499292 29.221974 
L 601.23378 27.496012 
L 601.968268 29.221974 
L 602.702756 27.496012 
L 603.437245 29.221974 
L 604.171733 27.496012 
L 604.906221 27.496012 
L 605.640709 27.496012 
L 606.375198 30.947936 
L 607.109686 30.947936 
L 607.844174 27.496012 
L 608.578662 27.496012 
L 609.313151 27.496012 
L 610.047639 27.496012 
L 610.782127 27.496012 
L 611.516615 27.496012 
L 612.251104 27.496012 
L 612.985592 27.496012 
" clip-path="url(#p1d5816a6b9)" style="fill: none; stroke: #ff7f0e; stroke-width: 1.5; stroke-linecap: square"/>
   </g>
   <g id="line2d_47">
    <path d="M 525.391945 200.092238 
L 526.126433 200.092238 
L 526.860922 200.092238 
L 527.59541 200.092238 
L 528.329898 200.092238 
L 529.064386 198.366276 
L 529.798875 200.092238 
L 530.533363 200.092238 
L 531.267851 198.366276 
L 532.002339 200.092238 
L 532.736828 196.640314 
L 533.471316 194.914351 
L 534.205804 196.640314 
L 534.940292 193.188389 
L 535.674781 181.106653 
L 536.409269 189.736465 
L 537.143757 186.28454 
L 537.878245 179.380691 
L 538.612734 177.654729 
L 539.347222 174.202804 
L 540.08171 158.669144 
L 540.816198 150.039333 
L 541.550687 158.669144 
L 542.285175 143.135483 
L 543.019663 132.77971 
L 543.754151 132.77971 
L 544.48864 124.149899 
L 545.223128 113.794125 
L 545.957616 106.890276 
L 546.692104 101.712389 
L 547.426593 96.534502 
L 548.161081 96.534502 
L 548.895569 99.986427 
L 549.630057 84.452767 
L 550.364546 87.904691 
L 551.099034 70.645068 
L 551.833522 60.289295 
L 552.56801 58.563333 
L 553.302499 63.741219 
L 554.036987 51.659483 
L 554.771475 75.822955 
L 555.505963 49.933521 
L 556.240452 60.289295 
L 556.97494 58.563333 
L 557.709428 51.659483 
L 558.443916 37.851785 
L 559.178404 39.577748 
L 559.912893 48.207559 
L 560.647381 36.125823 
L 561.381869 32.673899 
L 562.116357 32.673899 
L 562.850846 39.577748 
L 563.585334 30.947936 
L 564.319822 30.947936 
L 565.05431 36.125823 
L 565.788799 32.673899 
L 566.523287 32.673899 
L 567.257775 29.221974 
L 567.992263 32.673899 
L 568.726752 30.947936 
L 569.46124 30.947936 
L 570.195728 34.399861 
L 570.930216 29.221974 
L 571.664705 34.399861 
L 572.399193 29.221974 
L 573.133681 30.947936 
L 573.868169 27.496012 
L 574.602658 27.496012 
L 575.337146 27.496012 
L 576.071634 27.496012 
L 576.806122 27.496012 
L 577.540611 29.221974 
L 578.275099 27.496012 
L 579.009587 27.496012 
L 579.744075 29.221974 
L 580.478564 27.496012 
L 581.213052 27.496012 
L 581.94754 27.496012 
L 582.682028 27.496012 
L 583.416517 27.496012 
L 584.151005 27.496012 
L 584.885493 27.496012 
L 585.619981 27.496012 
L 586.35447 27.496012 
L 587.088958 27.496012 
" clip-path="url(#p1d5816a6b9)" style="fill: none; stroke: #2ca02c; stroke-width: 1.5; stroke-linecap: square"/>
   </g>
   <g id="patch_15">
    <path d="M 516.440074 205.270125 
L 516.440074 22.318125 
" style="fill: none; stroke: #000000; stroke-width: 0.8; stroke-linejoin: miter; stroke-linecap: square"/>
   </g>
   <g id="patch_16">
    <path d="M 713.38125 205.270125 
L 713.38125 22.318125 
" style="fill: none; stroke: #000000; stroke-width: 0.8; stroke-linejoin: miter; stroke-linecap: square"/>
   </g>
   <g id="patch_17">
    <path d="M 516.440074 205.270125 
L 713.38125 205.270125 
" style="fill: none; stroke: #000000; stroke-width: 0.8; stroke-linejoin: miter; stroke-linecap: square"/>
   </g>
   <g id="patch_18">
    <path d="M 516.440074 22.318125 
L 713.38125 22.318125 
" style="fill: none; stroke: #000000; stroke-width: 0.8; stroke-linejoin: miter; stroke-linecap: square"/>
   </g>
   <g id="text_47">
    <text style="font: 12px 'DejaVu Sans'; text-anchor: middle" x="614.910662" y="16.318125" transform="rotate(-0 614.910662 16.318125)">k=3, ell=4</text>
   </g>
   <g id="legend_3">
    <g id="patch_19">
     <path d="M 577.308787 201.270125 
L 652.512537 201.270125 
Q 654.112537 201.270125 654.112537 199.670125 
L 654.112537 165.242625 
Q 654.112537 163.642625 652.512537 163.642625 
L 577.308787 163.642625 
Q 575.708787 163.642625 575.708787 165.242625 
L 575.708787 199.670125 
Q 575.708787 201.270125 577.308787 201.270125 
z
" style="fill: #ffffff; opacity: 0.8; stroke: #cccccc; stroke-linejoin: miter"/>
    </g>
    <g id="line2d_48">
     <path d="M 578.908787 170.121375 
L 586.908787 170.121375 
L 594.908787 170.121375 
" style="fill: none; stroke: #1f77b4; stroke-width: 1.5; stroke-linecap: square"/>
    </g>
    <g id="text_48">
     <text style="font: 8px 'DejaVu Sans'; text-anchor: start" x="601.308787" y="172.921375" transform="rotate(-0 601.308787 172.921375)">i.i.d.</text>
    </g>
    <g id="line2d_49">
     <path d="M 578.908787 181.863875 
L 586.908787 181.863875 
L 594.908787 181.863875 
" style="fill: none; stroke: #ff7f0e; stroke-width: 1.5; stroke-linecap: square"/>
    </g>
    <g id="text_49">
     <text style="font: 8px 'DejaVu Sans'; text-anchor: start" x="601.308787" y="184.663875" transform="rotate(-0 601.308787 184.663875)">Standard SC</text>
    </g>
    <g id="line2d_50">
     <path d="M 578.908787 193.606375 
L 586.908787 193.606375 
L 594.908787 193.606375 
" style="fill: none; stroke: #2ca02c; stroke-width: 1.5; stroke-linecap: square"/>
    </g>
    <g id="text_50">
     <text style="font: 8px 'DejaVu Sans'; text-anchor: start" x="601.308787" y="196.406375" transform="rotate(-0 601.308787 196.406375)">Circular SC</text>
    </g>
   </g>
  </g>
 </g>
 <defs>
  <clipPath id="pa35f841731">
   <rect x="43.78125" y="22.318125" width="196.941176" height="182.952"/>
  </clipPath>
  <clipPath id="p2a19e5aef6">
   <rect x="280.110662" y="22.318125" width="196.941176" height="182.952"/>
  </clipPath>
  <clipPath id="p1d5816a6b9">
   <rect x="516.440074" y="22.318125" width="196.941176" height="182.952"/>
  </clipPath>
 </defs>
</svg>
